<?xml version="1.0" encoding="iso-8859-1"?>
<!-- Generator: Adobe Illustrator 19.0.0, SVG Export Plug-In . SVG Version: 6.00 Build 0)  -->
<svg version="1.1" id="Layer_1" xmlns="http://www.w3.org/2000/svg" xmlns:xlink="http://www.w3.org/1999/xlink" x="0px" y="0px"
	 viewBox="0 0 512.001 512.001" style="enable-background:new 0 0 512.001 512.001;" xml:space="preserve">
<g>
	<path style="fill:#FF8800;" d="M463.685,361.081l-41.128-77.155l-0.111-1.305l-27.879,187.91h3.43
		C454.185,470.531,490.115,410.663,463.685,361.081z"/>
	<path style="fill:#FF8800;" d="M89.555,283.719L89.555,283.719L89.555,283.719l-41.238,77.362
		c-26.429,49.582,9.501,109.45,65.687,109.45h3.43L89.555,283.719z"/>
</g>
<g>
	<path style="opacity:0.3;fill:#20272E;enable-background:new    ;" d="M89.555,283.719L89.555,283.719l-17.834,33.456v77.556
		c0,26.837,7.884,51.867,21.453,72.9c6.539,1.877,13.511,2.901,20.83,2.901h3.43L89.555,283.719L89.555,283.719z"/>
	<path style="opacity:0.3;fill:#20272E;enable-background:new    ;" d="M422.448,283.719L422.448,283.719l17.834,33.456v77.556
		c0,26.837-7.884,51.867-21.453,72.9c-6.539,1.877-13.511,2.901-20.83,2.901h-3.43L422.448,283.719L422.448,283.719z"/>
</g>
<path style="fill:#00C279;" d="M89.554,282.621V394.73c0,64.625,52.389,117.014,117.014,117.014h98.864
	c64.625,0,117.014-52.389,117.014-117.014V282.621H89.554z"/>
<g>
	<circle style="fill:#1E252B;" cx="176.6" cy="357.67" r="14.858"/>
	<circle style="fill:#1E252B;" cx="335.402" cy="357.67" r="14.858"/>
</g>
<path style="fill:#20272E;" d="M308.312,410.003c0,28.892-23.421,52.312-52.312,52.312s-52.312-23.421-52.312-52.312H308.312z"/>
<g>
	<path style="fill:#FFFFFF;" d="M234.566,432.81c4.926,0,8.917-3.992,8.917-8.917v-13.89H225.65v13.89
		C225.65,428.817,229.642,432.81,234.566,432.81z"/>
	<path style="fill:#FFFFFF;" d="M277.435,432.81c4.926,0,8.917-3.992,8.917-8.917v-13.89h-17.834v13.89
		C268.518,428.817,272.509,432.81,277.435,432.81z"/>
</g>
<path style="fill:#008678;" d="M256.001,392.493C256,392.493,256,392.493,256.001,392.493c-7.494,0-14.343-4.104-17.879-10.71
	l-11.417-21.328c-2.324-4.342-0.688-9.745,3.654-12.07c4.339-2.325,9.744-0.69,12.069,3.654l11.417,21.328
	c0.571,1.068,1.487,1.291,2.155,1.291c0.001,0,0.001,0,0.001,0c0.668,0,1.585-0.224,2.155-1.292l11.417-21.328
	c2.323-4.341,7.728-5.978,12.069-3.654c4.342,2.324,5.978,7.728,3.654,12.07l-11.417,21.328
	C270.343,388.39,263.491,392.493,256.001,392.493z"/>
<g>
	<path style="fill:#FF8740;" d="M200.893,337.33c-0.54,0-1.087-0.05-1.636-0.151l-47.753-8.853
		c-4.841-0.898-8.039-5.551-7.142-10.393c0.898-4.842,5.559-8.035,10.392-7.142l47.753,8.853c4.841,0.898,8.039,5.551,7.142,10.393
		C208.854,334.329,205.107,337.33,200.893,337.33z"/>
	<path style="fill:#FF8740;" d="M311.108,337.33c-4.213,0-7.961-3-8.756-7.293c-0.898-4.842,2.301-9.495,7.142-10.393l47.754-8.853
		c4.835-0.898,9.493,2.299,10.392,7.142c0.898,4.842-2.301,9.495-7.142,10.393l-47.754,8.853
		C312.195,337.281,311.648,337.33,311.108,337.33z"/>
</g>
<polygon style="fill:#A93CCB;" points="78.855,257.061 105.666,226.987 106.134,226.73 105.666,226.73 256.001,0 406.336,226.73 
	405.867,226.73 406.336,226.987 433.148,257.061 "/>
<path style="fill:#B857D0;" d="M462.568,226.73H49.433c-15.434,0-27.945,12.512-27.945,27.945l0,0
	c0,15.434,12.512,27.945,27.945,27.945h413.136c15.434,0,27.945-12.512,27.945-27.945l0,0
	C490.514,239.242,478.003,226.73,462.568,226.73z"/>
<g>
	<polygon style="opacity:0.3;fill:#20272E;enable-background:new    ;" points="78.223,304.975 433.779,304.975 422.448,283.717 
		422.448,282.621 89.555,282.621 89.555,283.719 	"/>
	<path style="opacity:0.3;fill:#20272E;enable-background:new    ;" d="M462.568,282.878c15.433,0,27.945-12.512,27.945-27.945
		c0-15.433-12.512-27.945-27.945-27.945h-56.233L256.001,0.258v511.743h49.432c35.706,0,67.672-15.998,89.136-41.212h3.43
		c56.186,0,92.116-59.868,65.687-109.45l-29.907-56.106l0,0l-11.331-21.258v-1.096h40.121V282.878z"/>
</g>
<g>
</g>
<g>
</g>
<g>
</g>
<g>
</g>
<g>
</g>
<g>
</g>
<g>
</g>
<g>
</g>
<g>
</g>
<g>
</g>
<g>
</g>
<g>
</g>
<g>
</g>
<g>
</g>
<g>
</g>
</svg>
